<svg version="1" xmlns="http://www.w3.org/2000/svg" width="356" height="356" viewBox="0 0 267.000000 267.000000"><path d="M14.5 9.9C6.4 13.5 7 5 7 114.8c0 96 0 98 2 100.4 4.7 6 .9 5.8 93.2 5.8h84.3l14 20c7.7 11 14.2 20 14.5 20 .3 0 3-9 6-20l5.4-20h10.9c11.8 0 15.6-1.1 19.7-5.5l2.5-2.7V16.2l-2.5-2.7c-5.3-5.8.7-5.5-123.7-5.5-109.2 0-115 .1-118.8 1.9zM60 72.5V85h26v11H60v26.1c0 29.4.4 31.4 6.7 34.4 3.6 1.7 13.6 1.7 17.6 0 1.5-.6 1.7-.1 1.7 4.3 0 4.9-.1 5.1-3.7 6.4-5.6 1.9-18 1.6-22.3-.6-4.9-2.6-6.9-4.5-9.4-9.1-2-3.8-2.1-5.6-2.4-32.8L47.8 96H37V85h11V60h12v12.5zm62.4 48.8c6.5 19.3 12.2 35.6 12.6 36 .4.5 2.2-3.6 4-9 1.8-5.4 7.3-21.6 12.3-36.1 8.8-25.8 9-26.2 11.7-26.2 3.1 0 2.7-1 20 50.2 4.1 12 7.6 21.5 7.9 21.2.3-.3 6-16.4 12.6-35.7 11.8-34.8 12-35.2 14.9-35.5 1.6-.2 3.3.1 3.8.6.6.6-4.4 15.7-13.7 41.6L193.7 169h-6.2l-11.4-33.3c-6.3-18.2-11.9-34.1-12.4-35.1-.8-1.6-3.5 5.2-13.1 33l-12.2 34.9h-6.6L119.4 134c-6.8-19-13.5-37.5-14.9-41.3L102 86h8.5l11.9 35.3z"/></svg>